<svg id="Layer_1" xmlns="http://www.w3.org/2000/svg" viewBox="0 0 800 600"><style>.st0{fill:#333333}.st1{fill:#999999}</style><title>default-image</title><path class="st0" d="M0 0h800v600H0V0z"/><path class="st1" d="M381.8 314.3l46.6-46.6 4.9 4.9-46.6 46.6-4.9-4.9zm-11.6-11.6l46.6-46.6 4.9 4.9-46.6 46.6-4.9-4.9zm-6 22.5l3.7-13.7 10 10-13.7 3.7zm71.6 22.2c-7.1 0-10.7-2.6-13.9-4.9-2.8-2-5.1-3.6-9.9-3.6s-7.1 1.6-9.9 3.6c-3.2 2.3-6.9 4.9-14 4.9s-10.7-2.6-14-4.9c-2.8-2-5.1-3.6-9.9-3.6V332c7.1 0 10.7 2.6 14 4.9 2.8 2 5.1 3.6 9.9 3.6 4.9 0 7.1-1.6 9.9-3.6 3.2-2.3 6.9-4.9 14-4.9s10.7 2.6 14 4.9c2.8 2 5.1 3.6 9.9 3.6v6.9z"/><path class="st1" d="M481.4 395.3H318.6V204.7h162.8v190.6zm-155.9-6.9h148.9V211.6H325.5v176.8z"/></svg>
