<svg data-name="Layer 1" xmlns="http://www.w3.org/2000/svg" viewBox="0 0 800 600"><title>default-image</title><path fill="#9fc9eb" d="M0 0h800v600H0z"/><g fill="#fff"><path d="M374.63 319.847l64.898-64.898 6.83 6.83-64.898 64.899zM358.535 303.757l64.898-64.898 6.83 6.83-64.898 64.899zM350.13 335.07l5.11-19.06 13.95 13.95-19.06 5.11zM449.87 366c-9.84 0-14.91-3.58-19.4-6.75-3.95-2.79-7.06-5-13.84-5s-9.9 2.2-13.84 5c-4.48 3.17-9.56 6.75-19.41 6.75s-14.93-3.58-19.41-6.75c-3.95-2.78-7.06-5-13.84-5v-9.65c9.85 0 14.93 3.59 19.41 6.75 3.95 2.78 7.06 5 13.84 5s9.9-2.2 13.84-5c4.48-3.16 9.57-6.75 19.41-6.75s14.93 3.59 19.41 6.75c3.94 2.78 7.06 5 13.83 5z"/><path d="M513.24 432.6H286.76V167.4h226.48zm-216.83-9.65h207.18V177.06H296.41z"/></g></svg>