<svg id="ce515bf4-8650-4a51-8e8f-3fdf36bb1e39" data-name="Layer 1" xmlns="http://www.w3.org/2000/svg" viewBox="0 0 800 600">
  <title>default-image</title>
  <rect width="800" height="600" fill="#9fc9eb"/>
  <g>
    <g>
      <rect x="364.6" y="285.98" width="91.78" height="9.66" transform="translate(-85.4 375.44) rotate(-45)" fill="#fff"/>
      <rect x="348.51" y="269.89" width="91.78" height="9.66" transform="translate(-78.74 359.35) rotate(-45)" fill="#fff"/>
      <polygon points="350.13 335.07 355.24 316.01 369.19 329.96 350.13 335.07" fill="#fff"/>
      <path d="M449.87,366c-9.84,0-14.91-3.58-19.4-6.75-3.95-2.79-7.06-5-13.84-5s-9.9,2.2-13.84,5c-4.48,3.17-9.56,6.75-19.41,6.75s-14.93-3.58-19.41-6.75c-3.95-2.78-7.06-5-13.84-5v-9.65c9.85,0,14.93,3.59,19.41,6.75,3.95,2.78,7.06,5,13.84,5s9.9-2.2,13.84-5c4.48-3.16,9.57-6.75,19.41-6.75s14.93,3.59,19.41,6.75c3.94,2.78,7.06,5,13.83,5Z" fill="#fff"/>
    </g>
    <path d="M513.24,432.6H286.76V167.4H513.24Zm-216.83-9.65H503.59V177.06H296.41Z" fill="#fff"/>
  </g>
</svg>
