<?xml version="1.0"?>
<svg xmlns="http://www.w3.org/2000/svg" height="512px" viewBox="0 0 480.96641 480.96641" width="512px" class=""><g><g><path d="m96.964844 233.9375 150.0625 150.0625c9.375 9.371094 24.566406 9.371094 33.9375 0 4.503906-4.5 7.03125-10.605469 7.03125-16.976562v-78.054688l144-144 12 12c6.628906 6.625 17.371094 6.625 24 0 6.625-6.628906 6.625-17.371094 0-24l-120-120c-6.628906-6.625-17.371094-6.625-24 0-6.625 6.628906-6.625 17.371094 0 24l12 12-144 144h-78.054688c-6.367187 0-12.472656 2.53125-16.976562 7.03125-9.367188 9.375-9.367188 24.566406 0 33.9375zm0 0" fill="#3fa9f5" data-original="#9CC9F3" class="" style="fill:#9CC9F3" data-old_color="#3FA9F5"/><path d="m183.996094 320.96875-120.679688 120.679688c-15.261718 15.261718-34.382812 26.085937-55.320312 31.320312 5.234375-20.9375 16.0625-40.058594 31.320312-55.320312l120.679688-120.679688zm0 0" fill="#ccc" data-original="#CCC" class="" style="fill:#CCC"/><path d="m353.652344 7.3125c-9.75-9.75-25.558594-9.75-35.3125 0-9.75 9.753906-9.75 25.5625 0 35.3125l6.34375 6.34375-136 136h-74.75c-8.484375.023438-16.613282 3.394531-22.625 9.375-12.492188 12.496094-12.492188 32.753906 0 45.25l57.375 57.375-115.023438 115.023438c-16.285156 16.289062-27.835937 36.695312-33.421875 59.042968-.679687 2.722656.121094 5.601563 2.105469 7.589844 1.984375 1.984375 4.863281 2.78125 7.589844 2.105469 22.34375-5.585938 42.75-17.140625 59.039062-33.425781l115.023438-115.023438 57.378906 57.375c12.492188 12.492188 32.75 12.492188 45.246094 0 5.984375-6.011719 9.351562-14.140625 9.375-22.621094v-74.753906l136-136 6.34375 6.34375c9.753906 9.75 25.5625 9.75 35.3125 0s9.75-25.558594 0-35.3125zm-296 428.679688c-10.625 10.628906-23.300782 18.992187-37.253906 24.578124 5.585937-13.957031 13.945312-26.636718 24.574218-37.265624l115.023438-115.023438 12.6875 12.6875zm404.6875-284.679688c-3.546875 3.390625-9.136719 3.390625-12.6875 0l-12-12c-3.125-3.121094-8.1875-3.121094-11.3125 0l-144 144c-1.5 1.5-2.34375 3.535156-2.34375 5.65625v78.066406c-.011719 4.238282-1.699219 8.304688-4.6875 11.308594-6.335938 6.03125-16.289063 6.03125-22.625 0l-150.0625-150.0625c-6.246094-6.246094-6.246094-16.375 0-22.625 3.007812-2.988281 7.070312-4.671875 11.3125-4.6875h78.0625c2.121094 0 4.15625-.84375 5.65625-2.34375l144-144c3.125-3.125 3.125-8.1875 0-11.3125l-12-12c-3.496094-3.503906-3.496094-9.179688 0-12.6875 3.550781-3.390625 9.140625-3.390625 12.6875 0l120 120c3.5 3.507812 3.5 9.183594 0 12.6875zm0 0" data-original="#000000" class="active-path" style="fill:#000000" data-old_color="#CCC"/></g></g> </svg>
