<?xml version="1.0" encoding="UTF-8"?>
<svg width="512px" height="512px" viewBox="0 0 480.96641 480.96641" version="1.1" xmlns="http://www.w3.org/2000/svg" xmlns:xlink="http://www.w3.org/1999/xlink">
    <defs></defs>
    <g id="Page-1" stroke="none" stroke-width="1" fill="none" fill-rule="evenodd">
        <g id="push-pin-(1)">
            <path d="M96.964844,233.9375 L247.027344,384 C256.402344,393.371094 271.59375,393.371094 280.964844,384 C285.46875,379.5 287.996094,373.394531 287.996094,367.023438 L287.996094,288.96875 L431.996094,144.96875 L443.996094,156.96875 C450.625,163.59375 461.367188,163.59375 467.996094,156.96875 C474.621094,150.339844 474.621094,139.597656 467.996094,132.96875 L347.996094,12.96875 C341.367188,6.34375 330.625,6.34375 323.996094,12.96875 C317.371094,19.597656 317.371094,30.339844 323.996094,36.96875 L335.996094,48.96875 L191.996094,192.96875 L113.941406,192.96875 C107.574219,192.96875 101.46875,195.5 96.964844,200 C87.597656,209.375 87.597656,224.566406 96.964844,233.9375 Z" id="Shape" fill="#9CC9F3" fill-rule="nonzero"></path>
            <path d="M183.996094,320.96875 L63.316406,441.648438 C48.054688,456.910156 28.933594,467.734375 7.996094,472.96875 C13.230469,452.03125 24.058594,432.910156 39.316406,417.648438 L159.996094,296.96875 L183.996094,320.96875 Z" id="Shape" fill="#CCCCCC" fill-rule="nonzero"></path>
            <path d="M353.652344,7.3125 C343.902344,-2.4375 328.09375,-2.4375 318.339844,7.3125 C308.589844,17.066406 308.589844,32.875 318.339844,42.625 L324.683594,48.96875 L188.683594,184.96875 L113.933594,184.96875 C105.449219,184.992188 97.320312,188.363281 91.308594,194.34375 C78.816406,206.839844 78.816406,227.097656 91.308594,239.59375 L148.683594,296.96875 L33.660156,411.992188 C17.375,428.28125 5.824219,448.6875 0.238281,471.035156 C-0.441406,473.757812 0.359375,476.636719 2.34375,478.625 C4.328125,480.609375 7.207031,481.40625 9.933594,480.730469 C32.277344,475.144531 52.683594,463.589844 68.972656,447.304688 L183.996094,332.28125 L241.375,389.65625 C253.867188,402.148438 274.125,402.148438 286.621094,389.65625 C292.605469,383.644531 295.972656,375.515625 295.996094,367.035156 L295.996094,292.28125 L431.996094,156.28125 L438.339844,162.625 C448.09375,172.375 463.902344,172.375 473.652344,162.625 C483.402344,152.875 483.402344,137.066406 473.652344,127.3125 L353.652344,7.3125 Z M57.652344,435.992188 C47.027344,446.621094 34.351562,454.984375 20.398438,460.570312 C25.984375,446.613281 34.34375,433.933594 44.972656,423.304688 L159.996094,308.28125 L172.683594,320.96875 L57.652344,435.992188 Z M462.339844,151.3125 C458.792969,154.703125 453.203125,154.703125 449.652344,151.3125 L437.652344,139.3125 C434.527344,136.191406 429.464844,136.191406 426.339844,139.3125 L282.339844,283.3125 C280.839844,284.8125 279.996094,286.847656 279.996094,288.96875 L279.996094,367.035156 C279.984375,371.273438 278.296875,375.339844 275.308594,378.34375 C268.972656,384.375 259.019531,384.375 252.683594,378.34375 L102.621094,228.28125 C96.375,222.035156 96.375,211.90625 102.621094,205.65625 C105.628906,202.667969 109.691406,200.984375 113.933594,200.96875 L191.996094,200.96875 C194.117188,200.96875 196.152344,200.125 197.652344,198.625 L341.652344,54.625 C344.777344,51.5 344.777344,46.4375 341.652344,43.3125 L329.652344,31.3125 C326.15625,27.808594 326.15625,22.132812 329.652344,18.625 C333.203125,15.234375 338.792969,15.234375 342.339844,18.625 L462.339844,138.625 C465.839844,142.132812 465.839844,147.808594 462.339844,151.3125 Z" id="Shape" fill="#000000" fill-rule="nonzero"></path>
            <rect id="Rectangle" fill="#000000" transform="translate(240.699747, 240.699747) rotate(-45.000000) translate(-240.699747, -240.699747) " x="233.699747" y="-26.2330624" width="14" height="533.86562"></rect>
        </g>
    </g>
</svg>