<?xml version="1.0" encoding="utf-8"?>
<!-- Generator: Adobe Illustrator 14.0.0, SVG Export Plug-In . SVG Version: 6.00 Build 43363)  -->
<!DOCTYPE svg PUBLIC "-//W3C//DTD SVG 1.1//EN" "http://www.w3.org/Graphics/SVG/1.1/DTD/svg11.dtd">
<svg version="1.1" id="Layer_1" xmlns="http://www.w3.org/2000/svg" xmlns:xlink="http://www.w3.org/1999/xlink" x="0px" y="0px"
	 width="26px" height="34px" viewBox="-75 75 26 34" enable-background="new -75 75 26 34" xml:space="preserve">
<g>
	<path opacity="0.2" fill="#333333" enable-background="new    " d="M-56,107.5c0,0.553-2.686,1-6,1s-6-0.447-6-1s2.686-1,6-1
		S-56,106.947-56,107.5"/>
	<path fill="#0ACC00" d="M-71.327,97.279c-0.008-0.012-0.017-0.022-0.026-0.033C-73.382,94.91-74.5,91.9-74.5,88.773
		C-74.5,81.73-68.893,76-62.001,76c6.894,0,12.501,5.73,12.501,12.773c0,3.125-1.118,6.135-3.146,8.473
		c-0.01,0.011-0.018,0.021-0.022,0.031l-9.331,9.509L-71.327,97.279z"/>
	<path fill="#0ACC00" d="M-62.001,76.5C-55.384,76.5-50,82.006-50,88.773c0,3.004-1.074,5.896-3.025,8.146
		c-0.008,0.009-0.016,0.019-0.021,0.028L-62,106.072l-8.949-9.122c-0.008-0.011-0.017-0.021-0.026-0.032
		C-72.926,94.673-74,91.779-74,88.773C-74,82.006-68.617,76.5-62.001,76.5 M-62.001,75.5C-69.18,75.5-75,81.443-75,88.773
		c0,3.377,1.235,6.459,3.27,8.801l-0.003,0.004l9.732,9.922l9.733-9.922l-0.002-0.004c2.033-2.342,3.27-5.424,3.27-8.801
		C-49,81.443-54.818,75.5-62.001,75.5L-62.001,75.5z"/>
	<g>
		<path fill="#FFFFFF" d="M-58.051,89.916c-0.359,0.479-0.578,1.078-0.578,1.738c0,1.597,1.277,2.873,2.875,2.873
			c1.576,0,2.874-1.276,2.874-2.873c0-1.579-1.298-2.877-2.874-2.877c-0.12,0-0.24,0-0.339,0.021l-0.32-0.838
			c0.2-0.04,0.419-0.06,0.66-0.06c2.075,0,3.753,1.677,3.753,3.754c0,2.072-1.679,3.752-3.753,3.752
			c-2.076,0-3.774-1.68-3.774-3.752c0-1.041,0.44-1.998,1.117-2.676L-58.051,89.916z"/>
		<path fill="#FFFFFF" d="M-70.228,90.176c-0.3,0.479-0.439,0.979-0.439,1.479c0,1.598,1.299,2.873,2.896,2.873
			c0.877,0,1.656-0.377,2.135-1.019l1.06,0.12c-0.66,1.079-1.857,1.777-3.194,1.777c-2.076,0-3.773-1.68-3.773-3.752
			c0-0.641,0.18-1.319,0.519-1.879C-70.767,89.876-70.467,90.016-70.228,90.176"/>
		<path fill="#FFFFFF" d="M-62.083,92.492c0.418,0,0.758-0.34,0.758-0.76s-0.339-0.76-0.758-0.76c-0.399,0-0.759,0.34-0.759,0.76
			S-62.481,92.492-62.083,92.492 M-64.503,87.564l-2.102,3.125l3.184-0.307L-64.503,87.564z M-71.865,88.158
			c0.024-0.023,0.191-0.182,0.218-0.204c0.793-0.662,1.898-1.093,3.077-1.093c1.019,0,2.016,0.34,2.855,0.959l0.834-1.241
			l-0.826-2.147c-0.1,0.021-0.202,0.035-0.308,0.035c-0.619,0-1.277-0.459-1.277-0.959c0-0.238,0.199-0.354,0.518-0.354
			c0.54,0,0.699,0.015,1.636,0.015h1.279c0.32,0,0.499,0.199,0.499,0.438c0,0.24-0.2,0.399-0.459,0.42l-0.259,0.02
			c-0.312,0.02-0.565,0.071-0.786,0.13l2.346,6.119l0.215-0.021c0.355-0.037,0.653,0.004,0.921,0.147
			c0.379-1.696,1.38-3.008,2.727-3.912l-0.715-1.87c-0.099-0.279,0.015-0.539,0.248-0.82l0.002,0.002
			c0.285-0.459,0.326-0.59,0.363-0.729c0.049-0.188-0.015-0.389-0.116-0.494c-0.066-0.068-0.185-0.164-0.4-0.158
			c-0.252,0.004-0.516,0.25-0.615,0.346c-0.174,0.168-0.435,0.186-0.611,0.023c-0.175-0.162-0.185-0.437-0.023-0.61
			c0.056-0.062,0.57-0.595,1.236-0.606c0.481-0.01,0.874,0.192,1.137,0.512c0.245,0.297,0.332,0.69,0.245,1.111
			c-0.089,0.434-0.192,0.627-0.566,1.195c-0.004,0.007-0.008,0.014-0.012,0.021l0.005,0.014h1.784c0.26,0,0.398,0.119,0.598,0.357
			c0.5,0.58,1.857,0.779,2.515-0.678c0.219-0.479,0.898-0.24,0.698,0.319l-0.836,2.436c-0.061,0.2-0.221,0.319-0.46,0.319h-1.657
			c-0.22,0-0.359-0.1-0.46-0.339l-0.678-1.718h-1.24l1.541,4.071c0.32,0.819,0.778,1.599,1.199,2.116
			c0.378,0.479-0.241,1.02-0.679,0.501c-0.419-0.479-0.979-1.339-1.318-2.237l-0.85-2.22c-1.343,0.983-2.15,2.472-2.245,4.017
			l-0.02,0.28c-0.08,1.196-0.879,1.616-1.857,1.517l-5.209-0.56c-0.58-0.059-0.919-0.418-0.919-0.938
			c0-0.289,0.157-0.561,0.412-0.729c-0.928-0.998-2.09-1.75-3.316-2.044c-0.03-0.009-0.194-0.055-0.224-0.06
			C-72.022,88.803-72.097,88.391-71.865,88.158"/>
	</g>
</g>
</svg>
