<?xml version="1.0" encoding="utf-8"?>
<!-- Generator: Adobe Illustrator 14.0.0, SVG Export Plug-In . SVG Version: 6.00 Build 43363)  -->
<!DOCTYPE svg PUBLIC "-//W3C//DTD SVG 1.1//EN" "http://www.w3.org/Graphics/SVG/1.1/DTD/svg11.dtd">
<svg version="1.1" id="Layer_1" xmlns="http://www.w3.org/2000/svg" xmlns:xlink="http://www.w3.org/1999/xlink" x="0px" y="0px"
	 width="26px" height="34px" viewBox="-25 25 26 34" enable-background="new -25 25 26 34" xml:space="preserve">
<g>
	<path opacity="0.2" fill="#333333" enable-background="new    " d="M-6,57.5c0,0.553-2.686,1-6,1c-3.314,0-6-0.447-6-1s2.686-1,6-1
		C-8.686,56.5-6,56.947-6,57.5"/>
	<path fill="#0086CD" d="M-21.327,47.279c-0.008-0.012-0.017-0.022-0.026-0.033C-23.382,44.91-24.5,41.9-24.5,38.773
		C-24.5,31.73-18.893,26-12.001,26C-5.107,26,0.5,31.73,0.5,38.773c0,3.125-1.118,6.135-3.146,8.473
		c-0.01,0.011-0.018,0.021-0.021,0.031l-9.331,9.509L-21.327,47.279z"/>
	<path fill="#0086CD" d="M-12.001,26.5C-5.384,26.5,0,32.006,0,38.773c0,3.004-1.074,5.896-3.025,8.146
		c-0.008,0.009-0.016,0.019-0.021,0.028L-12,56.072l-8.949-9.122c-0.008-0.011-0.017-0.021-0.026-0.032
		C-22.926,44.673-24,41.779-24,38.773C-24,32.006-18.617,26.5-12.001,26.5 M-12.001,25.5C-19.18,25.5-25,31.443-25,38.773
		c0,3.377,1.235,6.459,3.27,8.801l-0.003,0.004l9.732,9.922l9.733-9.922l-0.002-0.004C-0.236,45.232,1,42.15,1,38.773
		C1,31.443-4.818,25.5-12.001,25.5L-12.001,25.5z"/>
</g>
</svg>
