<svg xmlns="http://www.w3.org/2000/svg" width="26" height="34" viewBox="0 0 26 34"><g fill="#31A354"><path opacity=".75" d="M3.673 22.78c-.008-.013-.018-.023-.026-.034A12.918 12.918 0 0 1 .5 14.273C.5 7.23 6.107 1.5 13 1.5s12.5 5.73 12.5 12.773a12.92 12.92 0 0 1-3.146 8.473.112.112 0 0 0-.022.03L13 32.286 3.673 22.78z"/><path d="M13 2c6.618 0 12 5.506 12 12.273a12.423 12.423 0 0 1-3.046 8.174L13 31.572 4.05 22.45A12.408 12.408 0 0 1 1 14.273C1 7.506 6.382 2 13 2m0-1C5.82 1 0 6.943 0 14.273a13.37 13.37 0 0 0 3.27 8.8l-.002.005L13 33l9.732-9.922-.002-.004a13.38 13.38 0 0 0 3.27-8.8C26 6.944 20.182 1 13 1z"/></g><path opacity=".2" fill="#333" d="M19 33c0 .553-2.686 1-6 1s-6-.447-6-1 2.686-1 6-1 6 .447 6 1"/><path fill="#FFF" d="M17.354 7.062a2.368 2.368 0 0 0-1.078-.253c-1.19 0-2.37.813-3.008 2.074-.414.82-.546 1.723-.372 2.54l.015.06c1.18.013 2.16.876 2.404 2.025 1.19 0 2.37-.817 3.006-2.077.857-1.707.426-3.667-.966-4.372zm-2.71 8.833a2.435 2.435 0 0 1-1.76.757c-.62 0-1.19-.236-1.625-.627-.65.636-1.067 1.616-1.067 2.71 0 1.913 1.268 3.47 2.828 3.47s2.83-1.557 2.83-3.47c0-1.174-.478-2.213-1.208-2.84z"/><path fill="#FFF" d="M12.883 11.485c.053 0 .106.003.16.007.04-.158.068-.32.083-.49.077-.834-.16-1.715-.667-2.48-.708-1.063-1.828-1.726-2.926-1.726-.49 0-.958.137-1.35.396-1.3.86-1.5 2.858-.443 4.454.668 1.007 1.707 1.653 2.747 1.72.295-1.084 1.255-1.88 2.395-1.88z"/><path fill="#FFF" d="M10.395 14.07c0-.334.06-.65.17-.942-.462-.288-1.035-.446-1.67-.446-.603 0-1.225.15-1.796.433-.824.408-1.47 1.05-1.82 1.81-.36.775-.374 1.58-.034 2.265.443.895 1.402 1.427 2.567 1.427.604 0 1.226-.15 1.797-.434.91-.45 1.572-1.177 1.888-1.97a2.607 2.607 0 0 1-1.103-2.144zm10.34.983c-.34-.763-.98-1.414-1.794-1.833a4.087 4.087 0 0 0-1.84-.456c-.71 0-1.35.202-1.834.565.067.232.104.48.104.74a2.61 2.61 0 0 1-.933 2.01c.272.865.95 1.677 1.922 2.174a4.06 4.06 0 0 0 1.84.457c1.14 0 2.09-.52 2.535-1.392.352-.682.35-1.487 0-2.267z"/></svg>