<svg xmlns="http://www.w3.org/2000/svg" width="26" height="34" viewBox="0 0 26 34"><g fill="#756BB1"><path opacity=".75" d="M3.673 22.78c-.008-.013-.018-.023-.026-.034A12.918 12.918 0 0 1 .5 14.273C.5 7.23 6.107 1.5 13 1.5s12.5 5.73 12.5 12.773a12.92 12.92 0 0 1-3.146 8.473.112.112 0 0 0-.022.03L13 32.286 3.673 22.78z"/><path d="M13 2c6.618 0 12 5.506 12 12.273a12.423 12.423 0 0 1-3.046 8.174L13 31.572 4.05 22.45A12.408 12.408 0 0 1 1 14.273C1 7.506 6.382 2 13 2m0-1C5.82 1 0 6.943 0 14.273a13.37 13.37 0 0 0 3.27 8.8l-.002.005L13 33l9.732-9.922-.002-.004a13.38 13.38 0 0 0 3.27-8.8C26 6.944 20.182 1 13 1z"/></g><path fill="#FFF" d="M15.503 16.6a1.475 1.475 0 0 1-1.453-1.737c.043-.23 1.047-5.707 2.01-8.164a1.47 1.47 0 0 1 2.74 1.073c-.857 2.192-1.842 7.562-1.852 7.616a1.47 1.47 0 0 1-1.445 1.21z"/><path fill="#FFF" d="M15.312 16.698H8.667a1.57 1.57 0 0 1 0-3.143h6.646a1.57 1.57 0 0 1 0 3.143z"/><path fill="#FFF" d="M16.09 22.234h-1.178v-6.792h1.178zm-6.206 0H8.706v-6.792h1.178z"/><path opacity=".2" fill="#333" d="M19 33c0 .553-2.686 1-6 1s-6-.447-6-1 2.686-1 6-1 6 .447 6 1"/></svg>