<svg xmlns="http://www.w3.org/2000/svg" width="26" height="34" viewBox="0 0 26 34"><path opacity=".2" fill="#333" d="M19 33c0 .553-2.686 1-6 1s-6-.447-6-1 2.686-1 6-1 6 .447 6 1"/><g fill="#3182BD"><path opacity=".75" d="M3.673 22.78c-.008-.013-.017-.023-.026-.034A12.912 12.912 0 0 1 .5 14.273C.5 7.23 6.107 1.5 13 1.5s12.5 5.73 12.5 12.773c0 3.125-1.118 6.135-3.146 8.473a.145.145 0 0 0-.023.03L13 32.286 3.673 22.78z"/><path d="M13 2c6.616 0 12 5.506 12 12.273a12.423 12.423 0 0 1-3.046 8.174L13 31.572 4.05 22.45l-.025-.032A12.408 12.408 0 0 1 1 14.273C1 7.506 6.383 2 13 2m0-1C5.82 1 0 6.943 0 14.273a13.37 13.37 0 0 0 3.27 8.8l-.003.005L13 33l9.732-9.922-.002-.004a13.38 13.38 0 0 0 3.27-8.8C26 6.944 20.182 1 13 1z"/></g></svg>