<svg xmlns="http://www.w3.org/2000/svg" width="26" height="34" viewBox="0 0 26 34"><g fill="#636363"><path opacity=".75" d="M3.673 22.78c-.008-.013-.018-.023-.026-.034A12.918 12.918 0 0 1 .5 14.273C.5 7.23 6.107 1.5 13 1.5s12.5 5.73 12.5 12.773a12.92 12.92 0 0 1-3.146 8.473.112.112 0 0 0-.022.03L13 32.286 3.673 22.78z"/><path d="M13 2c6.618 0 12 5.506 12 12.273a12.423 12.423 0 0 1-3.046 8.174L13 31.572 4.05 22.45A12.408 12.408 0 0 1 1 14.273C1 7.506 6.382 2 13 2m0-1C5.82 1 0 6.943 0 14.273a13.37 13.37 0 0 0 3.27 8.8l-.002.005L13 33l9.732-9.922-.002-.004a13.38 13.38 0 0 0 3.27-8.8C26 6.944 20.182 1 13 1z"/></g><path opacity=".2" fill="#333" d="M19 33c0 .553-2.686 1-6 1s-6-.447-6-1 2.686-1 6-1 6 .447 6 1"/><path fill="#FFF" d="M15.626 6.4C14.92 6.14 13.986 6 13 6c-.987 0-1.92.142-2.626.4-1.024.373-1.24.857-1.24 1.197V20.4c0 .342.215.824 1.24 1.2.706.257 1.64.4 2.626.4s1.92-.143 2.626-.398c1.024-.375 1.24-.858 1.24-1.2V7.6c0-.34-.216-.825-1.24-1.2zm.317 6.712c0 .107-.06.206-.15.257-.05.025-1.207.656-2.834.656-.96 0-1.88-.22-2.74-.652a.293.293 0 0 1-.164-.263v-3.085a.295.295 0 0 1 .435-.258c.014.007 1.06.563 2.526.563.867 0 1.71-.19 2.506-.57a.295.295 0 0 1 .422.266v3.086h-.002zm.592-5.258a.866.866 0 0 1-.148.215 1.82 1.82 0 0 1-.41.312c-.3.17-.623.29-.95.383a7.68 7.68 0 0 1-1.005.204c-.338.044-.68.07-1.022.08-.34.006-.684.003-1.027-.02a5.136 5.136 0 0 1-1.02-.175 3.692 3.692 0 0 1-.963-.408 1.686 1.686 0 0 1-.408-.347.892.892 0 0 1-.14-.235.523.523 0 0 1-.03-.267c0-.01.01-.017.02-.015.008 0 .014.007.015.015a.63.63 0 0 0 .254.385c.124.098.267.172.413.236.295.124.61.21.93.28.32.066.643.12.97.167.326.047.656.08.99.086.33.008.662 0 .993-.027a7.3 7.3 0 0 0 .985-.14c.325-.068.647-.16.94-.304.148-.072.29-.158.41-.27a.722.722 0 0 0 .15-.187.485.485 0 0 0 .07-.23c0-.01.01-.018.02-.017.01 0 .02.007.02.017a.545.545 0 0 1-.054.257z"/></svg>