<svg version="1" xmlns="http://www.w3.org/2000/svg" width="933.333" height="933.333" viewBox="0 0 700.000000 700.000000"><path d="M88.4 76.2c-.6.9-.5 412.2 0 418.3.6 6.6 1.7 13.8 2.8 18 .5 2.2 1.2 4.8 1.4 5.8.8 4.5 6.1 18 10 25.5 14.5 28.1 41.7 52.2 71 62.6 8 2.9 18.1 5.5 23.3 6.2 2 .2 4.9.7 6.5 1 1.6.4 16.3.8 32.5.9 31.9.3 41.9 1.4 54.1 5.9 19.6 7.1 28 12.9 49.6 34.4l10.3 10.3 9.6-9.6c21.7-21.3 30.6-27.7 48.2-34.4 13.5-5.2 22.3-6.2 57.1-6.6 21.1-.2 31.2-.7 38.2-2 47.2-8.2 86.2-41.2 102-86 1.7-5 3.1-9.2 3.1-9.5 0-.3.4-2.1.9-4 1.2-4.6 1.9-9.6 2.6-18.3.8-9.3.9-417.5.1-418.3-.8-.9-522.8-1-523.3-.2zm480.7 45c.5 13 0 368-.5 372.8-1.9 17.3-10 35.2-22.2 48.9-7.7 8.7-21.3 17.8-33.5 22.7-12.4 4.9-18.4 5.6-47.9 5.9-41.4.5-53.8 2.3-75 10.6-13.3 5.3-22.3 10.4-38.4 22.3-.8.5-4.8-1.6-11.7-6.2-19.4-13.2-38.4-20.8-61.4-24.7-7.3-1.2-17.8-1.7-43.5-2-15.1-.1-30-.8-33-1.4-31.7-6.5-57.2-29-67-59.2-2.3-7.3-2.7-8.9-3.6-16.8-.5-4.1-1-373.2-.5-374.9.1-.1 98.7-.2 219.1-.2h219l.1 2.2z"/><path d="M253 344.5V462h50v-48.5c0-26.7.3-48.5.8-48.6.4 0 21.5-.1 47-.2l46.2-.2V462h50V227h-50v93h-94v-93h-50v117.5z"/></svg>